<?xml version="1.0" encoding="utf-8"?>
<!-- Generator: Adobe Illustrator 28.0.0, SVG Export Plug-In . SVG Version: 6.00 Build 0)  -->
<svg version="1.1" id="Layer_2_00000031174054801268472330000000072654639867284894_"
	 xmlns="http://www.w3.org/2000/svg" xmlns:xlink="http://www.w3.org/1999/xlink" x="0px" y="0px" viewBox="0 0 211.8 68.2"
	 style="enable-background:new 0 0 211.8 68.2;" xml:space="preserve">
<style type="text/css">
	.st0{fill:#A4A7AE;}
	.st1{fill:#A4A7AE;}
	.st2{fill:#FFFFFF;}
	.st3{fill:#A4A7AE;}
	.st4{fill:#A4A7AE;}
	.st5{fill:#A4A7AE;}
	.st6{fill:#A4A7AE;}
	.st7{fill:#A4A7AE;}
	.st8{fill:#A4A7AE;}
	.st9{fill:#A4A7AE;}
	.st10{enable-background:new    ;}
	.st11{fill:#A4A7AE;}
</style>
<g id="Layer_1-2">
	<g>
		<g>
			<g>
				<path class="st0" d="M23.6,43.1v1.3h-6.5v-1.3c0-0.3,0.1-0.4,0.4-0.5l1.3-0.4L17,37.7H7.3l-1.8,4.5l1.3,0.4
					c0.3,0.1,0.4,0.2,0.4,0.5v1.3H0.7v-1.3c0-0.3,0.1-0.4,0.4-0.5l1.3-0.4l8.2-20.5h3.1l8.2,20.5l1.3,0.4
					C23.4,42.7,23.6,42.8,23.6,43.1L23.6,43.1z M12.8,26.8c-0.2-0.4-0.4-1.1-0.7-2.1c-0.2,1-0.5,1.7-0.6,2.1l-3.4,8.7h8.1L12.8,26.8
					z"/>
				<path class="st0" d="M31.3,44.6c-2,0-3.7-0.7-5-2.2c-1.4-1.5-2-3.6-2-6.1s0.6-4.4,1.9-5.9c1.4-1.5,3.2-2.3,5.6-2.3
					c1.2,0,2.8,0.4,4.7,1.1v4.2h-1.3c-0.3,0-0.5-0.2-0.5-0.4c0-0.1-0.1-0.5-0.1-1.2l-0.1-1c-0.2-0.1-0.5-0.1-0.7-0.2
					s-0.4-0.1-0.5-0.1c-0.6-0.1-1.2-0.1-1.8-0.1c-0.5,0-1.1,0.1-1.7,0.4c-0.6,0.2-1.1,0.6-1.5,1.2c-0.8,1.1-1.2,2.5-1.2,4.4
					s0.4,3.4,1.3,4.5c0.8,1,2,1.6,3.4,1.6c1.3,0,2.5-0.4,3.5-1.3c0.2-0.2,0.4-0.2,0.6-0.2c0.2,0,0.4,0.1,0.5,0.2l0.8,1
					C35.9,43.8,33.9,44.6,31.3,44.6L31.3,44.6z"/>
				<path class="st0" d="M42.6,43.6c-0.7-0.7-1-1.7-1-3v-9.8h-1.9c-0.2,0-0.3,0-0.4-0.1c-0.1-0.1-0.2-0.2-0.2-0.5v-1.1l2.6-0.4
					l0.6-5c0-0.2,0.1-0.3,0.2-0.4c0.1-0.1,0.2-0.1,0.4-0.1h1.4v5.5h4.6v2h-4.6v9.6c0,0.7,0.2,1.2,0.5,1.5c0.3,0.3,0.8,0.5,1.3,0.5
					c0.2,0,0.5,0,0.8-0.1c0.2-0.1,0.4-0.2,0.6-0.2c0.1,0,0.1-0.1,0.2-0.1c0.1,0,0.1-0.1,0.2-0.1c0.2-0.1,0.3-0.1,0.3-0.1
					c0.2,0,0.3,0.1,0.4,0.2l0.8,1.3c-0.6,0.5-1.2,0.8-1.8,1.1c-0.7,0.2-1.4,0.4-2.1,0.4C44.2,44.6,43.3,44.3,42.6,43.6L42.6,43.6z"
					/>
				<path class="st0" d="M58.9,42.6c0.1,0.1,0.1,0.2,0.1,0.4v1.4h-7.4V43c0-0.2,0-0.3,0.1-0.4c0.1-0.1,0.2-0.2,0.3-0.2l1.8-0.3V30.7
					l-1.8-0.4c-0.2,0-0.3-0.1-0.3-0.2c-0.1-0.1-0.1-0.2-0.1-0.4v-1.3h5.1v13.7l1.8,0.3C58.7,42.4,58.8,42.5,58.9,42.6L58.9,42.6z"/>
				<path class="st0" d="M77.5,29.8c0,0.3-0.2,0.5-0.5,0.6c-0.1,0-0.2,0-0.3,0c-0.1,0-0.3,0.1-0.4,0.1l-0.8,0.2l-5.6,13.7h-2.6
					l-5.6-13.7c-0.2-0.1-0.5-0.1-0.8-0.2l-0.7-0.1c-0.3-0.1-0.5-0.3-0.5-0.6v-1.4h7.2v1.4c0,0.3-0.2,0.5-0.5,0.6
					c-0.2,0-0.4,0.1-0.7,0.1c-0.3,0-0.7,0.1-1.1,0.2l3.4,8.6c0.2,0.4,0.4,1.2,0.6,2.3c0.3-1.2,0.5-1.9,0.6-2.3l3.4-8.6l-1.8-0.4
					c-0.3-0.1-0.5-0.3-0.5-0.6v-1.3h7.1L77.5,29.8L77.5,29.8z"/>
				<path class="st0" d="M93,42.6c0.1,0.1,0.1,0.2,0.1,0.4v1.4h-3.3c-0.2,0-0.4,0-0.7-0.1c-0.2,0-0.2-0.2-0.3-0.5l-0.3-1.5l-1.3,1
					c-0.4,0.3-0.8,0.5-1.3,0.8c-0.5,0.2-0.9,0.4-1.4,0.5c-0.4,0.1-1,0.2-1.7,0.2c-0.6,0-1.2-0.1-1.7-0.3c-0.7-0.2-1.1-0.5-1.4-0.8
					c-0.4-0.3-0.7-0.8-0.9-1.3c-0.2-0.5-0.3-1.1-0.3-1.9c0-0.7,0.2-1.3,0.5-1.8c0.4-0.6,0.9-1.1,1.7-1.6c0.8-0.5,1.8-0.9,3-1.1
					c1.2-0.3,2.8-0.4,4.6-0.4v-1.2c0-1.2-0.3-2.2-0.8-2.8s-1.3-1-2.4-1c-0.7,0-1.2,0.1-1.7,0.3c-0.6,0.2-0.9,0.4-1.2,0.6
					c-0.1,0.1-0.3,0.2-0.4,0.3c-0.2,0.1-0.3,0.2-0.5,0.3c-0.2,0.2-0.5,0.2-0.7,0.2c-0.2,0-0.4,0-0.5-0.1c-0.1-0.1-0.2-0.2-0.3-0.4
					l-0.5-0.9c0.8-0.8,1.8-1.4,2.8-1.9c1-0.4,2.1-0.6,3.4-0.6c0.9,0,1.8,0.1,2.4,0.4c0.7,0.3,1.3,0.7,1.7,1.2
					c0.5,0.5,0.8,1.1,1.1,1.9c0.2,0.7,0.3,1.5,0.3,2.5v8c1,0.2,1.5,0.3,1.6,0.3v-0.1C92.8,42.4,92.9,42.4,93,42.6L93,42.6z M85,37.4
					c-0.8,0.2-1.5,0.4-2.2,0.7c-0.6,0.3-1,0.6-1.3,1c-0.2,0.4-0.4,0.8-0.4,1.2c0,0.3,0.1,0.7,0.2,1.1c0.1,0.3,0.3,0.6,0.6,0.8
					s0.5,0.3,0.8,0.4c0.4,0.1,0.7,0.2,1,0.2c0.4,0,0.9,0,1.3-0.2c0.4-0.1,0.8-0.2,1.2-0.4c0.3-0.2,0.7-0.4,1-0.7
					c0.2-0.2,0.5-0.5,0.9-0.9v-3.3C86.9,37.2,85.9,37.3,85,37.4L85,37.4z"/>
				<path class="st0" d="M96.4,43.6c-0.7-0.7-1-1.7-1-3v-9.8h-1.9c-0.2,0-0.3,0-0.4-0.1c-0.1-0.1-0.2-0.2-0.2-0.5v-1.1l2.6-0.4
					l0.6-5c0-0.2,0.1-0.3,0.2-0.4c0.1-0.1,0.2-0.1,0.4-0.1h1.4v5.5h4.6v2h-4.6v9.6c0,0.7,0.2,1.2,0.5,1.5c0.3,0.3,0.8,0.5,1.3,0.5
					c0.2,0,0.5,0,0.8-0.1c0.2-0.1,0.4-0.2,0.6-0.2c0.1,0,0.1-0.1,0.2-0.1c0.1,0,0.1-0.1,0.2-0.1c0.2-0.1,0.3-0.1,0.3-0.1
					c0.2,0,0.3,0.1,0.4,0.2l0.8,1.3c-0.6,0.5-1.2,0.8-1.8,1.1c-0.7,0.2-1.4,0.4-2.1,0.4C98.1,44.6,97.1,44.3,96.4,43.6L96.4,43.6z"
					/>
				<path class="st0" d="M114.6,28.6c0.8,0.3,1.5,0.8,2.1,1.4c0.6,0.7,1.1,1.4,1.4,2.2c0.3,1,0.5,2,0.5,3c0,0.5,0,0.8-0.1,0.9
					c-0.1,0.2-0.3,0.2-0.6,0.2h-10.6c0,1,0.1,1.9,0.4,2.7c0.2,0.7,0.6,1.3,1.1,1.8c0.5,0.5,1,0.9,1.6,1.1c0.6,0.2,1.3,0.4,2,0.4
					c0.8,0,1.4-0.1,1.8-0.2c0.4-0.2,0.9-0.3,1.3-0.5c0.5-0.2,0.8-0.4,0.9-0.5c0.3-0.2,0.5-0.2,0.6-0.2c0.2,0,0.4,0.1,0.5,0.3l0.8,1
					c-0.3,0.4-0.7,0.7-1.3,1.1c-0.6,0.4-1.2,0.7-1.6,0.8c-0.6,0.2-1.2,0.4-1.7,0.4c-0.6,0.1-1.2,0.2-1.7,0.2c-1.1,0-2.1-0.2-3.1-0.6
					c-0.9-0.4-1.7-0.9-2.4-1.7c-0.7-0.7-1.2-1.6-1.6-2.7c-0.4-1.1-0.6-2.3-0.6-3.7c0-1.1,0.2-2.1,0.5-3.1c0.4-1,0.8-1.8,1.5-2.5
					c0.7-0.7,1.4-1.3,2.4-1.7s2-0.6,3.1-0.6C112.9,28.2,113.8,28.3,114.6,28.6L114.6,28.6z M108.9,31.4c-0.8,0.8-1.3,1.9-1.4,3.3
					h8.7c0-0.7-0.1-1.2-0.3-1.8c-0.2-0.7-0.5-1.1-0.8-1.4c-0.4-0.4-0.8-0.7-1.3-0.9c-0.5-0.2-1.1-0.3-1.7-0.3l0,0
					C110.7,30.2,109.7,30.6,108.9,31.4L108.9,31.4z"/>
				<path class="st1" d="M154.7,23.4c0,0.5-0.3,0.9-0.8,1l-0.4,0.1l-0.9,0.2l-6.2,19.8h-3.8l-5-15.6l-0.2-0.6l-0.2-0.8l-0.2,0.8
					l-0.2,0.6l-5.1,15.6h-3.8L122,24.6l-0.9-0.2l-0.3-0.1c-0.5-0.1-0.8-0.5-0.8-1v-1.9h8.5v1.9c0,0.5-0.3,0.9-0.8,1
					c-0.1,0-0.1,0-0.2,0l-0.3,0.1c-0.2,0-0.4,0.1-0.5,0.1l3.3,11.5l0.3,1.1l0.2,1.3l0.3-1.3c0.1-0.4,0.2-0.8,0.3-1.1l4.5-13.6
					c0.1-0.3,0.3-0.5,0.5-0.7c0.3-0.2,0.6-0.3,0.9-0.3h1.3c0.4,0,0.7,0.1,0.9,0.2c0.2,0.2,0.4,0.4,0.5,0.7l4.4,13.6
					c0.3,0.8,0.5,1.5,0.6,2.2c0.1-0.5,0.2-0.9,0.2-1.2c0.1-0.4,0.1-0.7,0.2-1.1l3.2-11.5l-1.3-0.3c-0.5-0.1-0.8-0.5-0.8-1v-1.9h8.5
					L154.7,23.4L154.7,23.4z"/>
				<path class="st1" d="M165.3,28.5c1,0.4,1.9,1,2.5,1.6c0.7,0.7,1.2,1.6,1.6,2.6c0.4,1,0.6,2.2,0.6,3.4s-0.2,2.4-0.6,3.5
					c-0.4,1.1-0.9,2-1.6,2.7c-0.7,0.7-1.5,1.3-2.5,1.7c-1,0.4-2.1,0.6-3.3,0.6s-2.3-0.2-3.3-0.6c-1-0.4-1.8-0.9-2.5-1.7
					c-0.7-0.8-1.3-1.6-1.6-2.7c-0.4-1-0.6-2.2-0.6-3.5s0.2-2.4,0.6-3.4c0.4-1,0.9-1.8,1.6-2.6c0.7-0.7,1.5-1.2,2.5-1.6
					c1-0.4,2.1-0.6,3.3-0.6S164.3,28.1,165.3,28.5z M165,40.2c0.6-1,1-2.3,1-4s-0.3-3-1-4c-0.6-0.9-1.6-1.4-3-1.4s-2.4,0.5-3,1.4
					s-1,2.3-1,4s0.3,3,1,4c0.6,0.9,1.7,1.4,3,1.4S164.4,41.2,165,40.2z"/>
				<path class="st1" d="M184.7,28.4l-0.5,2.9c0,0.2-0.1,0.3-0.2,0.4c-0.1,0.1-0.3,0.1-0.4,0.1c-0.1,0-0.4,0-0.6-0.1
					c-0.4-0.1-0.8-0.1-1.1-0.1c-0.8,0-1.5,0.2-2.1,0.7c-0.5,0.4-1,1.1-1.4,2v7l1.6,0.3c0.5,0.1,0.8,0.5,0.8,1v1.9H172v-1.9
					c0-0.5,0.3-0.8,0.8-1l1.6-0.3v-9.9l-1.6-0.3c-0.5-0.1-0.8-0.5-0.8-1v-1.9h4.7c0.4,0,0.7,0.1,0.8,0.2c0.1,0.1,0.2,0.4,0.3,0.8
					l0.2,2c0.6-1,1.2-1.8,2-2.4c0.8-0.6,1.7-0.9,2.6-0.9C183.5,27.9,184.2,28.1,184.7,28.4L184.7,28.4z"/>
				<path class="st1" d="M203.7,42.5v1.9h-4.1c-0.3,0-0.5,0-0.8-0.2c-0.2-0.1-0.4-0.3-0.6-0.5l-4.1-6.2c-0.1-0.2-0.3-0.4-0.5-0.5
					c-0.1-0.1-0.4-0.1-0.7-0.1H192v4.3l0.9,0.2l0.5,0.1l0.2,0c0.5,0.1,0.8,0.5,0.8,1v1.9h-8.7v-1.9c0-0.5,0.3-0.8,0.8-1l0.2,0
					c0.1,0,0.1,0,0.2,0c0.1,0,0.2,0,0.3-0.1l0.9-0.2V24l-0.9-0.2c-0.1,0-0.2,0-0.3-0.1c-0.1,0-0.1,0-0.2,0l-0.2,0
					c-0.5-0.1-0.8-0.5-0.8-1v-1.9h6.3v13.4h0.7c0.3,0,0.5,0,0.6-0.1c0.1,0,0.3-0.2,0.5-0.4l2.2-2.8l-0.3-0.1c-0.5-0.1-0.8-0.5-0.8-1
					v-1.9h3.9v0c0.1,0,0.2,0,0.3,0h3.5v1.9c0,0.5-0.3,0.9-0.8,1l-0.2,0l-0.6,0.1l-0.9,0.1l-2.4,2.9l-0.6,0.6
					c-0.2,0.2-0.4,0.4-0.6,0.5c0.2,0.2,0.4,0.4,0.6,0.5c0.1,0.1,0.1,0.2,0.2,0.3c0.1,0.1,0.2,0.2,0.3,0.4l3.2,4.7
					c0.5,0.1,0.8,0.1,1,0.2c0.5,0,0.7,0.1,0.7,0.1l0.3,0.1C203.4,41.7,203.7,42,203.7,42.5L203.7,42.5z"/>
			</g>
			<g>
				<g>
					<path class="st2" d="M59.2,21.6c-1.4,0.5-2.9,0.9-4.4,1c0.9,0.2,1.8,0.3,2.8,0.4c-0.9-0.1-1.9-0.2-2.8-0.4c-0.4,0-0.8,0-1.1,0
						c0.4,0,0.7,0,1.1,0C56.3,22.5,57.8,22.1,59.2,21.6c2-2.3,3-5.5,3.5-8.7c0.2-0.9,0.2-1.9,0.3-2.9c0.3-5.3-0.5-10-0.5-10
						s-6.4,3.7-10.7,9C52.2,9,52.6,9,53,9c1,0,1.9,0.1,2.9,0.4c0.4,0,0.8,0,1.3,0c-0.4,0-0.8,0-1.3,0c-1,0.1-2,0.2-2.9,0.4
						c0.9-0.2,1.9-0.4,2.9-0.4C54.9,9.1,53.9,9,53,9c-0.3,0-0.7,0-1.1,0.1c-2.3,0.2-4.6,1.3-6.7,3.6c0.1,1.1,0.3,2,0.6,2.9
						c0.7-1.5,1.6-2.6,2.6-3.5c-1,0.9-2,2-2.6,3.5c-0.3,0.7-0.6,1.4-0.8,2.3c1.1,1.6,2.4,2.8,3.7,3.5c0.5,1.2,1.2,2.5,2.2,3.7
						c0,0,0.1,0,0.1,0c2.8,0,5-0.8,6.7-2.1l0,0C58.3,22.5,58.8,22,59.2,21.6L59.2,21.6z M50.8,10.5L50.8,10.5
						c0.4-0.2,0.8-0.3,1.2-0.4C51.6,10.2,51.2,10.3,50.8,10.5z"/>
					<path class="st2" d="M72.2,12.9c0,0-4.1-1.9-9.1-2.9c-0.1,0.9-0.2,1.9-0.3,2.9c-0.5,3.2-1.5,6.4-3.5,8.7
						c-0.4,0.5-0.9,1-1.5,1.4c0.7,0,1.3,0.1,2,0.1c6,0,11.6-1.7,11.6-1.7s-1.5-2-3.9-4.4C70.3,14.8,72.2,13,72.2,12.9L72.2,12.9z
						 M60.4,21.1c1.6-0.7,3.1-1.5,4.5-2.4C63.5,19.6,62,20.4,60.4,21.1z"/>
				</g>
				<path class="st3" d="M48.7,21.3c0.5,1.2,1.2,2.5,2.2,3.7c0,0,0.1,0,0.1,0c2.8,0,5-0.8,6.7-2.1c-1-0.1-1.9-0.2-2.9-0.4
					c-0.4,0-0.8,0-1.1,0C52,22.6,50.3,22.2,48.7,21.3 M62.6,0c0,0-6.4,3.7-10.7,9C52.2,9,52.6,9,53,9c1,0,1.9,0.1,2.9,0.4
					c0.4,0,0.8,0,1.3,0c2,0,4.1,0.3,6,0.7C63.4,4.7,62.6,0,62.6,0"/>
				<path class="st4" d="M67.5,16.9c-2.3,1.7-5.2,3.5-8.2,4.6c-0.4,0.5-0.9,1-1.5,1.4c0.7,0,1.3,0.1,2,0.1c6,0,11.6-1.7,11.6-1.7
					S69.9,19.3,67.5,16.9 M51.9,9c-2.3,0.2-4.6,1.3-6.7,3.6c0.1,1.1,0.3,2,0.6,2.9c1.2-2.5,2.9-4.1,5-5C51.2,10,51.5,9.5,51.9,9"/>
				<path class="st5" d="M59.2,21.6c-1.4,0.5-2.9,0.9-4.4,1c1,0.2,1.9,0.3,2.9,0.4C58.3,22.5,58.8,22.1,59.2,21.6 M53,9
					c-0.3,0-0.7,0-1.1,0.1c-0.4,0.5-0.8,1-1.1,1.5c1.5-0.7,3.2-1,5-1.1C54.9,9.1,53.9,9,53,9"/>
				<path class="st6" d="M45.8,15.5c-0.3,0.7-0.6,1.4-0.8,2.3c1.1,1.6,2.4,2.8,3.7,3.5c-0.2-0.6-0.4-1.3-0.5-1.9
					C47.2,18.4,46.3,17.1,45.8,15.5 M63.1,10c-0.1,0.9-0.2,1.9-0.3,2.9c1.8,1.3,3.4,2.8,4.7,4.1c2.8-2.1,4.7-4,4.7-4
					S68.1,11,63.1,10"/>
				<path class="st7" d="M48.2,19.4c0.1,0.6,0.2,1.3,0.5,1.9c1.6,0.9,3.3,1.3,5.1,1.3c0.4,0,0.7,0,1.1,0
					C52.3,22.1,50,21.1,48.2,19.4 M57.1,9.3c-0.4,0-0.8,0-1.3,0c2.5,0.6,4.8,1.9,7,3.5c0.2-0.9,0.2-1.9,0.3-2.8
					C61.2,9.6,59.1,9.3,57.1,9.3"/>
				<path class="st8" d="M62.8,12.8c-0.5,3.2-1.5,6.4-3.5,8.7c3.1-1.1,6-3,8.2-4.6C66.2,15.6,64.6,14.1,62.8,12.8 M50.8,10.5
					c-2.1,0.9-3.9,2.5-5,5c0.5,1.6,1.4,2.9,2.4,3.9C47.8,16.2,49,13.2,50.8,10.5"/>
				<path class="st9" d="M55.8,9.4c-1.8,0.1-3.5,0.4-5,1.1c-1.9,2.7-3,5.7-2.6,8.9c1.8,1.7,4.1,2.7,6.7,3.2c1.5-0.1,2.9-0.5,4.4-1
					c2-2.3,3-5.5,3.5-8.7C60.6,11.3,58.3,10,55.8,9.4"/>
				<path class="st2" d="M57,15.6c0.2,1-0.5,2-1.5,2.2c-1,0.2-2-0.5-2.2-1.5c-0.2-1,0.5-2,1.5-2.2C55.8,13.9,56.8,14.6,57,15.6"/>
			</g>
		</g>
		<g class="st10">
			<path class="st11" d="M0.4,52.8c0-0.7,0.1-1.3,0.3-1.9c0.2-0.6,0.6-1,1-1.4s0.9-0.7,1.5-0.9c0.6-0.2,1.2-0.3,1.9-0.3
				c0.7,0,1.3,0.1,1.9,0.3c0.6,0.2,1.1,0.5,1.5,0.9s0.7,0.9,1,1.4c0.2,0.6,0.3,1.2,0.3,1.9c0,0.7-0.1,1.3-0.3,1.9
				c-0.2,0.6-0.6,1-1,1.4C8,56.5,7.5,56.8,6.9,57c-0.6,0.2-1.2,0.3-1.9,0.3c-0.7,0-1.3-0.1-1.9-0.3s-1.1-0.5-1.5-0.9
				c-0.4-0.4-0.7-0.9-1-1.4C0.5,54.1,0.4,53.5,0.4,52.8z M2.4,52.8c0,0.4,0.1,0.8,0.2,1.1c0.1,0.3,0.3,0.6,0.5,0.9
				c0.2,0.2,0.5,0.4,0.8,0.6c0.3,0.1,0.7,0.2,1.1,0.2c0.4,0,0.8-0.1,1.1-0.2C6.5,55.2,6.7,55,7,54.8c0.2-0.2,0.4-0.5,0.5-0.9
				c0.1-0.3,0.2-0.7,0.2-1.1c0-0.4-0.1-0.8-0.2-1.1c-0.1-0.3-0.3-0.6-0.5-0.9c-0.2-0.2-0.5-0.4-0.8-0.6S5.4,50.1,5,50.1
				c-0.4,0-0.8,0.1-1.1,0.2c-0.3,0.1-0.6,0.3-0.8,0.6c-0.2,0.2-0.4,0.5-0.5,0.9C2.4,52.1,2.4,52.4,2.4,52.8z"/>
			<path class="st11" d="M13.3,48.5h3.2c0.4,0,0.9,0,1.3,0.1c0.4,0.1,0.7,0.2,1,0.4c0.3,0.2,0.5,0.5,0.7,0.8
				c0.2,0.3,0.3,0.8,0.3,1.3c0,0.5-0.1,0.9-0.2,1.3c-0.2,0.3-0.4,0.6-0.7,0.8c-0.3,0.2-0.6,0.3-1,0.4c-0.4,0.1-0.8,0.1-1.3,0.1h-1.4
				v3.3h-1.9V48.5z M15.1,52.2h1.3c0.2,0,0.3,0,0.5,0s0.3-0.1,0.4-0.2c0.1-0.1,0.2-0.2,0.3-0.3c0.1-0.1,0.1-0.3,0.1-0.5
				c0-0.2-0.1-0.4-0.2-0.5c-0.1-0.1-0.2-0.2-0.4-0.3c-0.2-0.1-0.3-0.1-0.5-0.1c-0.2,0-0.4,0-0.6,0h-1V52.2z"/>
			<path class="st11" d="M23.2,48.5h3.2c0.4,0,0.9,0,1.3,0.1c0.4,0.1,0.7,0.2,1,0.4c0.3,0.2,0.5,0.5,0.7,0.8
				c0.2,0.3,0.3,0.8,0.3,1.3c0,0.5-0.1,0.9-0.2,1.3c-0.2,0.3-0.4,0.6-0.7,0.8c-0.3,0.2-0.6,0.3-1,0.4c-0.4,0.1-0.8,0.1-1.3,0.1h-1.4
				v3.3h-1.9V48.5z M25.1,52.2h1.3c0.2,0,0.3,0,0.5,0s0.3-0.1,0.4-0.2c0.1-0.1,0.2-0.2,0.3-0.3c0.1-0.1,0.1-0.3,0.1-0.5
				c0-0.2-0.1-0.4-0.2-0.5c-0.1-0.1-0.2-0.2-0.4-0.3c-0.2-0.1-0.3-0.1-0.5-0.1c-0.2,0-0.4,0-0.6,0h-1V52.2z"/>
			<path class="st11" d="M32.7,52.8c0-0.7,0.1-1.3,0.3-1.9c0.2-0.6,0.6-1,1-1.4s0.9-0.7,1.5-0.9c0.6-0.2,1.2-0.3,1.9-0.3
				c0.7,0,1.3,0.1,1.9,0.3c0.6,0.2,1.1,0.5,1.5,0.9s0.7,0.9,1,1.4c0.2,0.6,0.3,1.2,0.3,1.9c0,0.7-0.1,1.3-0.3,1.9
				c-0.2,0.6-0.6,1-1,1.4c-0.4,0.4-0.9,0.7-1.5,0.9c-0.6,0.2-1.2,0.3-1.9,0.3c-0.7,0-1.3-0.1-1.9-0.3s-1.1-0.5-1.5-0.9
				c-0.4-0.4-0.7-0.9-1-1.4C32.8,54.1,32.7,53.5,32.7,52.8z M34.6,52.8c0,0.4,0.1,0.8,0.2,1.1c0.1,0.3,0.3,0.6,0.5,0.9
				c0.2,0.2,0.5,0.4,0.8,0.6c0.3,0.1,0.7,0.2,1.1,0.2c0.4,0,0.8-0.1,1.1-0.2c0.3-0.1,0.6-0.3,0.8-0.6c0.2-0.2,0.4-0.5,0.5-0.9
				c0.1-0.3,0.2-0.7,0.2-1.1c0-0.4-0.1-0.8-0.2-1.1c-0.1-0.3-0.3-0.6-0.5-0.9c-0.2-0.2-0.5-0.4-0.8-0.6s-0.7-0.2-1.1-0.2
				c-0.4,0-0.8,0.1-1.1,0.2c-0.3,0.1-0.6,0.3-0.8,0.6c-0.2,0.2-0.4,0.5-0.5,0.9C34.7,52.1,34.6,52.4,34.6,52.8z"/>
		</g>
		<g class="st10">
			<path class="st11" d="M45.6,48.5h3.3c0.4,0,0.9,0,1.2,0.1c0.4,0.1,0.7,0.2,1,0.4s0.5,0.5,0.7,0.8s0.3,0.8,0.3,1.3
				c0,0.6-0.2,1.1-0.5,1.5c-0.3,0.4-0.8,0.7-1.4,0.8l2.2,3.6h-2.3l-1.8-3.4h-0.9v3.4h-1.9V48.5z M47.5,52.1h1.1c0.2,0,0.3,0,0.5,0
				c0.2,0,0.4,0,0.5-0.1c0.2-0.1,0.3-0.2,0.4-0.3c0.1-0.1,0.2-0.3,0.2-0.5c0-0.2,0-0.4-0.1-0.5c-0.1-0.1-0.2-0.2-0.3-0.3
				c-0.1-0.1-0.3-0.1-0.5-0.1c-0.2,0-0.4,0-0.5,0h-1.2V52.1z"/>
		</g>
		<g class="st10">
			<path class="st11" d="M57.2,50.2h-2.4v-1.7h6.8v1.7h-2.4v6.9h-1.9V50.2z"/>
			<path class="st11" d="M72,53.8c0,0.5-0.1,1-0.2,1.4c-0.2,0.4-0.4,0.8-0.7,1.1c-0.3,0.3-0.7,0.6-1.1,0.7c-0.5,0.2-1,0.3-1.6,0.3
				c-0.6,0-1.1-0.1-1.6-0.3s-0.8-0.4-1.1-0.7c-0.3-0.3-0.5-0.7-0.7-1.1c-0.2-0.4-0.2-0.9-0.2-1.4v-5.3h1.9v5.2c0,0.3,0,0.5,0.1,0.7
				c0.1,0.2,0.2,0.4,0.4,0.6c0.2,0.2,0.3,0.3,0.6,0.4c0.2,0.1,0.4,0.1,0.7,0.1s0.5,0,0.7-0.1c0.2-0.1,0.4-0.2,0.5-0.4
				c0.2-0.2,0.3-0.4,0.4-0.6c0.1-0.2,0.1-0.5,0.1-0.7v-5.2H72V53.8z"/>
			<path class="st11" d="M76.1,48.5h2.6l3.6,6h0v-6h1.9v8.6h-2.5L78,51h0v6.1h-1.9V48.5z"/>
			<path class="st11" d="M88.2,48.5h1.9v8.6h-1.9V48.5z"/>
			<path class="st11" d="M95.8,50.2h-2.4v-1.7h6.8v1.7h-2.4v6.9h-1.9V50.2z"/>
			<path class="st11" d="M105.5,53.4l-3.2-4.9h2.4l1.8,3.2l1.9-3.2h2.2l-3.2,4.9v3.7h-1.9V53.4z"/>
			<path class="st11" d="M121.1,50.2h-2.4v-1.7h6.8v1.7H123v6.9h-1.9V50.2z"/>
			<path class="st11" d="M128.3,52.8c0-0.7,0.1-1.3,0.3-1.9c0.2-0.6,0.6-1,1-1.4s0.9-0.7,1.5-0.9c0.6-0.2,1.2-0.3,1.9-0.3
				c0.7,0,1.3,0.1,1.9,0.3c0.6,0.2,1.1,0.5,1.5,0.9s0.7,0.9,1,1.4s0.3,1.2,0.3,1.9c0,0.7-0.1,1.3-0.3,1.9s-0.6,1-1,1.4
				c-0.4,0.4-0.9,0.7-1.5,0.9c-0.6,0.2-1.2,0.3-1.9,0.3c-0.7,0-1.3-0.1-1.9-0.3s-1.1-0.5-1.5-0.9c-0.4-0.4-0.7-0.9-1-1.4
				C128.4,54.1,128.3,53.5,128.3,52.8z M130.2,52.8c0,0.4,0.1,0.8,0.2,1.1c0.1,0.3,0.3,0.6,0.5,0.9c0.2,0.2,0.5,0.4,0.8,0.6
				c0.3,0.1,0.7,0.2,1.1,0.2c0.4,0,0.8-0.1,1.1-0.2c0.3-0.1,0.6-0.3,0.8-0.6c0.2-0.2,0.4-0.5,0.5-0.9c0.1-0.3,0.2-0.7,0.2-1.1
				c0-0.4-0.1-0.8-0.2-1.1c-0.1-0.3-0.3-0.6-0.5-0.9c-0.2-0.2-0.5-0.4-0.8-0.6s-0.7-0.2-1.1-0.2c-0.4,0-0.8,0.1-1.1,0.2
				c-0.3,0.1-0.6,0.3-0.8,0.6c-0.2,0.2-0.4,0.5-0.5,0.9C130.3,52.1,130.2,52.4,130.2,52.8z"/>
		</g>
		<g class="st10">
			<path class="st11" d="M146.9,48.5h1.9v8.6h-1.9V48.5z"/>
			<path class="st11" d="M152.8,48.5h2.9l2,5.6h0l2-5.6h2.8v8.6h-1.9v-6.6h0l-2.3,6.6h-1.4l-2.2-6.6h0v6.6h-1.9V48.5z"/>
		</g>
		<g class="st10">
			<path class="st11" d="M166.6,48.5h3.2c0.4,0,0.9,0,1.3,0.1c0.4,0.1,0.7,0.2,1,0.4c0.3,0.2,0.5,0.5,0.7,0.8
				c0.2,0.3,0.3,0.8,0.3,1.3c0,0.5-0.1,0.9-0.2,1.3c-0.2,0.3-0.4,0.6-0.7,0.8c-0.3,0.2-0.6,0.3-1,0.4c-0.4,0.1-0.8,0.1-1.3,0.1h-1.4
				v3.3h-1.9V48.5z M168.4,52.2h1.3c0.2,0,0.3,0,0.5,0c0.2,0,0.3-0.1,0.4-0.2c0.1-0.1,0.2-0.2,0.3-0.3c0.1-0.1,0.1-0.3,0.1-0.5
				c0-0.2-0.1-0.4-0.2-0.5c-0.1-0.1-0.2-0.2-0.4-0.3c-0.2-0.1-0.3-0.1-0.5-0.1c-0.2,0-0.4,0-0.6,0h-1V52.2z"/>
		</g>
		<g class="st10">
			<path class="st11" d="M178.4,48.5h1.6l3.7,8.6h-2.1l-0.7-1.8h-3.3l-0.7,1.8h-2.1L178.4,48.5z M179.2,51l-1,2.7h2.1L179.2,51z"/>
			<path class="st11" d="M192.5,50.8c-0.2-0.2-0.4-0.4-0.7-0.5s-0.6-0.2-0.9-0.2s-0.7,0.1-1,0.2c-0.3,0.1-0.6,0.3-0.8,0.6
				c-0.2,0.2-0.4,0.5-0.5,0.9c-0.1,0.3-0.2,0.7-0.2,1.1c0,0.4,0.1,0.8,0.2,1.1c0.1,0.3,0.3,0.6,0.5,0.9c0.2,0.2,0.5,0.4,0.8,0.6
				c0.3,0.1,0.6,0.2,1,0.2c0.4,0,0.7-0.1,1-0.2c0.3-0.2,0.5-0.4,0.7-0.7l1.6,1.2c-0.4,0.5-0.8,0.9-1.4,1.1c-0.6,0.2-1.1,0.4-1.7,0.4
				c-0.7,0-1.3-0.1-1.9-0.3s-1.1-0.5-1.5-0.9c-0.4-0.4-0.7-0.9-1-1.4s-0.3-1.2-0.3-1.9c0-0.7,0.1-1.3,0.3-1.9s0.6-1,1-1.4
				s0.9-0.7,1.5-0.9c0.6-0.2,1.2-0.3,1.9-0.3c0.2,0,0.5,0,0.8,0.1c0.3,0,0.5,0.1,0.8,0.2c0.3,0.1,0.5,0.2,0.7,0.4
				c0.2,0.2,0.4,0.4,0.6,0.6L192.5,50.8z"/>
			<path class="st11" d="M199.2,50.2h-2.4v-1.7h6.8v1.7h-2.4v6.9h-1.9V50.2z"/>
		</g>
	</g>
</g>
</svg>
