<?xml version="1.0" encoding="UTF-8"?>
<svg id="Layer_2" data-name="Layer 2" xmlns="http://www.w3.org/2000/svg" viewBox="0 0 136.97 94.92">
  <defs>
    <style>
      .cls-1 {
        letter-spacing: 0em;
      }

      .cls-2 {
        letter-spacing: 0em;
      }

      .cls-3 {
        fill: #A4A7AE;
      }

      .cls-3, .cls-4, .cls-5, .cls-6, .cls-7, .cls-8, .cls-9 {
        stroke-width: 0px;
      }

      .cls-4 {
        fill: #A4A7AE;
      }

      .cls-5 {
        fill: #A4A7AE;
      }

      .cls-6 {
        fill: #fff;
      }

      .cls-7, .cls-10 {
        fill: #A4A7AE;
      }

      .cls-8 {
        fill: #A4A7AE;
      }

      .cls-9 {
        fill: #A4A7AE;
      }

      .cls-10 {
        font-family: FiraSansCondensed-Regular, 'Fira Sans Condensed';
        font-size: 11.22px;
      }
    </style>
  </defs>
  <g id="Page_1_-_Logo_White_Background" data-name="Page 1 - Logo White Background">
    <g>
      <polygon class="cls-7" points="76.18 41.91 70.32 44.16 72.4 47.1 69.24 45.95 69.49 48.83 67.33 46.57 64.97 49.86 65.31 45.89 61.35 47.03 64.3 44.06 60.34 42.59 64.69 42.01 62.54 37.13 66.05 39.36 67.27 36.04 68.76 39.74 72.65 37.45 70.98 41.44 76.18 41.91"/>
      <g>
        <path class="cls-4" d="m0,41.79h9.2v34.69H0v-34.69Z"/>
        <path class="cls-4" d="m21.97,51.32c1.19,0,2.48.24,3.81.67v-.86h9.2v19.78c.43,12.44-4.62,14.53-10.15,15.3-4.81.62-9.82-1-11.2-2.33l1.38-6.15s3.91,1.62,6.72,1.1c3.33-.52,3.91-2.29,4-4.53-1.24,1.1-3,1.95-5.05,1.95-5,.1-9.44-4.72-9.48-12.58-.05-6.43,4.34-12.34,10.77-12.34Zm1,18.73c2.14.52,2.76-1.86,2.81-3.57v-5.62c0-1.76-.62-3.1-2-3.29-1.91-.29-3,2-3,6.1,0,3.24.05,5.86,2.19,6.39Z"/>
        <path class="cls-4" d="m37.4,76.48v-25.02h9.67v2.48c1.29-1.52,3.34-2.86,6.29-2.86,6.34-.05,7.39,6.24,7.24,14.2v11.2h-9.67v-11.2c0-3.15.1-7.1-2.33-6.53-1.24.33-1.53,2-1.53,2v15.73h-9.67Z"/>
        <rect class="cls-4" x="63.09" y="51.46" width="9.67" height="25.02"/>
        <path class="cls-4" d="m74.81,59.28v-7.67h2.24v-3.43l9.67-3.34-.19,6.77h3.48l.62,7.67h-4.29l-.1,3c0,3.15-.29,5.24,2.19,5.15,1.14-.05,1.67-.67,1.67-.67v7.62c-1.67,2-3.86,2.62-6.81,2.33-6.24-.62-6.24-5.53-6.24-11.87v-5.58h-2.24Z"/>
        <path class="cls-4" d="m91.82,63.76c0-7.43,5.05-12.72,12.15-12.72s12.06,5.19,12.15,12.82l-15.3,3.57c.76,1.05,1.81,1.72,3.14,1.72s3.05-.33,4.34-1.67l7.58,1.43c-2.91,6.53-7.96,7.67-11.91,7.67-7.1,0-12.15-5.34-12.15-12.82Zm8.1-2.53l7.53-1.52c-.76-1.24-1.95-2.05-3.48-2.05-2.1,0-3.53,1.57-4.05,3.57Z"/>
        <path class="cls-4" d="m117.74,58.61c.71-4.86,5.43-7.72,10.67-7.77,2.76,0,6.15.91,8.39,2.53l-2.86,7.34c-.67-.43-4.24-2.62-6.29-2.62-.76,0-1.33.33-1.43,1.1-.19,1.33,11.39,1.1,10.72,9.91-.43,5.81-5.67,8.15-11.01,8.24-2.91.05-6.77-1.29-9.2-2.91l3.29-7.53c1.72,1.62,4.72,2.67,6.62,2.67,1.05,0,1.76-.33,1.76-1.05.05-1-11.96-.76-10.67-9.91Z"/>
      </g>
      <g>
        <g>
          <circle class="cls-6" cx="47.7" cy="17.29" r="16.92"/>
          <path class="cls-3" d="m62.15,17.29c.81-.11,1.63-.18,2.46-.2h0s0,.02,0,.02c0,0,0,0,0,0,0,0,0,0,0,0,0,0,0-.02,0-.03h0c-.02-1.15-.14-2.27-.37-3.35,0-.04-.02-.09-.03-.13-.01-.06-.03-.12-.04-.18-.02-.1-.05-.2-.07-.31,0,0,0-.02,0-.03-.28-1.08-.66-2.12-1.13-3.1,0,0,0-.01,0-.02-.04-.08-.08-.17-.12-.25-1.72-3.39-4.51-6.12-7.93-7.74-.04-.02-.09-.04-.13-.06-.05-.02-.1-.05-.16-.07-2.09-.94-4.47-1.46-6.91-1.47-.02,0,.02,0,0,0h0v6.17h0v.23s0,0,0,0c2.1,0,3.81,1.71,3.81,3.81s-1.7,3.81-3.81,3.81c0,0,0,0,0,0v2.36c4.1,0,7.86.52,10.81,1.38.01,0,.03-.01.04-.01,1.16-.38,2.36-.66,3.59-.83Z"/>
          <path class="cls-8" d="m64.62,17.09h0c-.83.02-1.66.09-2.46.2-1.23.17-2.43.45-3.59.83-.01,0-.03.01-.04.01-4.18,1.37-7.79,4.01-10.38,7.46h-.44v8.59s.07.02.1.02c9.22,0,16.71-7.46,16.82-16.71,0-.04,0-.15,0-.25h0c0-.05,0-.1,0-.13,0,0,0-.02,0-.02Z"/>
          <path class="cls-7" d="m30.78,17.09h0c.83.02,1.66.09,2.46.2,1.23.17,2.43.45,3.59.83.01,0,.03.01.04.01,2.96-.86,6.71-1.38,10.81-1.38v-2.36s0,0,0,0c-2.1,0-3.81-1.71-3.81-3.81s1.7-3.81,3.81-3.81c0,0,0,0,0,0v-.23s0,0,0,0V.37h0s.02,0,0,0c-2.44,0-4.81.53-6.91,1.47-.05.02-.1.05-.16.07-.04.02-.09.04-.13.06-3.42,1.62-6.22,4.35-7.93,7.74-.04.08-.08.17-.12.25,0,0,0,.01,0,.02-.47.98-.85,2.02-1.13,3.1,0,0,0,.02,0,.03-.03.1-.05.2-.07.31-.01.06-.03.12-.04.18,0,.04-.02.09-.03.13-.23,1.08-.36,2.2-.37,3.35h0s0,.02,0,.03c0,0,0,0,0,0h0s0-.02,0-.02h0Z"/>
          <path class="cls-5" d="m36.88,18.13s-.03-.01-.04-.01c-1.16-.38-2.36-.66-3.59-.83-.81-.11-1.63-.18-2.46-.2h0s0,.02,0,.02c0,.03,0,.08,0,.13h0c0,.1,0,.21,0,.25.11,9.25,7.6,16.71,16.82,16.71.03,0,.1-.02.1-.02v-8.59h-.44c-2.6-3.45-6.21-6.09-10.38-7.46Z"/>
        </g>
        <path class="cls-9" d="m0,34.69V0h9.48v13.68h9.96V0h9.53v34.69h-9.53v-14.11h-9.96v14.11H0Z"/>
        <path class="cls-9" d="m66.42,34.69V0h9.2c9.39,0,15.73,2.53,15.73,12.2,0,7-6.67,12.39-15.73,12.06v10.44h-9.2Zm9.2-17.2c3.81.05,6.58-1.67,6.53-5.38-.05-3.81-2.95-5.62-6.53-5.29v10.67Z"/>
        <path class="cls-9" d="m93.25,34.69V0h20.97v8.82h-11.77v4.86h9.72v6.91h-9.72v5.29h11.77v8.82h-20.97Z"/>
      </g>
      <text class="cls-10" transform="translate(37.4 91)"><tspan x="0" y="0">B</tspan><tspan class="cls-1" x="6.14" y="0">o</tspan><tspan class="cls-2" x="11.99" y="0">y</tspan><tspan x="16.92" y="0">s Hope Girls Hope</tspan></text>
    </g>
  </g>
</svg>