<?xml version="1.0" encoding="utf-8"?>
<!-- Generator: Adobe Illustrator 25.1.0, SVG Export Plug-In . SVG Version: 6.00 Build 0)  -->
<svg version="1.1" id="Layer_1" xmlns="http://www.w3.org/2000/svg" xmlns:xlink="http://www.w3.org/1999/xlink" x="0px" y="0px"
	 viewBox="0 0 798.5 70.2" style="enable-background:new 0 0 798.5 70.2;" xml:space="preserve">
<style type="text/css">
	.st0{fill:#A4A7AE;}
	.st1{fill:#A4A7AE;}
	.st2{fill:none;}
	.st3{fill:#A4A7AE;}
</style>
<g>
	<path class="st0" d="M411.1,30.3c-8.1,0-14.8-6.7-14.8-15.1S403,0.2,411.1,0.2c8.4,0,15.1,6.7,15.1,15.1S419.5,30.3,411.1,30.3z
		 M411.1,68.8c-8.1,0-14.8-6.7-14.8-15.1s6.7-15.1,14.8-15.1c8.4,0,15.1,6.7,15.1,15.1C426.1,61.9,419.5,68.8,411.1,68.8z"/>
	<path class="st1" d="M227,67.2l-21.5-29.7v29.7h-16.3V1.9h16.3v28l21.5-28h19.8l-25.1,31.3l26.8,34H227z"/>
	<path class="st1" d="M253,67.2V1.9h16.3v65.5H253V67.2z"/>
	<path class="st1" d="M315.7,24.1c0,6.5-4.5,10.3-11.7,10.3c-1.4,0-3.8-0.2-5-0.5V14.5c1.4-0.2,3.8-0.2,5.7-0.2
		C312.1,14.3,315.7,18.9,315.7,24.1z M332.9,23.4c0-13.9-9.8-22-27-22c-8.1,0-17.5,0.2-23.2,0.5v65.5h16.3V47.1
		c1.4,0,4.1,0.2,5.5,0.2C320.9,47.3,332.9,38,332.9,23.4z"/>
	<path class="st1" d="M371.4,24.1c0,6.5-4.5,10.3-11.7,10.3c-1.4,0-3.8-0.2-5-0.5V14.5c1.4-0.2,3.8-0.2,5.7-0.2
		C367.6,14.3,371.4,18.9,371.4,24.1z M388.6,23.4c0-13.9-9.8-22-27-22c-8.1,0-17.5,0.2-23.2,0.5v65.5h16.3V47.1
		c1.4,0,4.1,0.2,5.5,0.2C376.6,47.3,388.6,38,388.6,23.4z"/>
	<path class="st2" d="M91.6,45.4c31.8-31.6,76-29.4,79.6-29.2c0.2,0,0.2,0,0.2,0l0,0c0,0,0,0-0.2,0C167.7,16,123.4,13.8,91.6,45.4z"
		/>
	<path class="st1" d="M171.5,12.9v-0.2c-1-2.6-2.2-5.3-3.3-7.9c-0.5-0.5-1.2-0.7-1.4-1.4c-1.4-3.3-1.2-3.3-4.8-3.1
		c-16.7,0.7-33.7,1.7-50.7,1.9c-18.4,0.2-36.8,1-55.2-1c-2.2-0.2-3.3,1-3.3,3.3c0,1-0.2,2.6-0.7,2.9c-2.9,1-4.3,3.3-5.5,5.5
		c-4.1-1.7-6.7,0.2-9.1,3.3c-1.4-2.2-3.3-2.2-5.3-0.5c-0.5,0.5-1,0.7-1.7,1c-1.2,0.2-1.9,0.7-1.9,2.2c0,1-0.2,2.2-1.7,1.9
		c-1.9-0.2-3.3,1-4.5,1.9c-1.2,0.7-2.2,1.9-3.3,2.6c-0.7,0.5-1.7,0.7-2.4,0.5c-4.5-1.4-10,2.6-10,6.9c-1,0-2.2-0.2-3.1,0
		c-1,0.5-2.6,1.2-2.6,1.9c-1,1.9-0.7,4.1-0.7,6.2c1,0.2,1.4,0.2,2.2,0.2c3.8,0.2,7.7,0.2,11.5,0.2c5.5,0,11,0.7,16.3-1.4
		c1.2-0.5,2.9-0.2,3.8-0.7c3.1-1.9,6.5-2.2,9.8-1.9c2.4,0,4.5,0.2,6.9,0.5C74.2,23.4,116,5.5,171.5,12.9z"/>
	<path class="st1" d="M95,48.5c0.2,0.2,0.2,0.2,0.5,0.5c6.7,6.7,13.4,13.2,20.1,19.8c0.7,0.7,1.4,1,2.6,0.5c1.7-0.5,3.6-1,5.5-1.2
		c1.2-0.2,2.4-0.2,3.3,1.2c0.7,1.2,3.1,0.7,3.6-0.7c1.7-3.6,3.3-6.9,4.8-10.5c0.7-2.2,2.4-3.1,4.1-4.3c1.7-1,3.3-2.2,4.8-3.1
		c1-0.7,1.9-1.2,2.9-1.7c2.9-1.4,6.2-1.2,9.3-1.2c0.7,0,1.7-0.5,1.9-1c0.7-1.4,1.7-2.2,2.9-2.9c0.7-0.5,1.4-1.9,1.7-2.9
		c0-1-0.5-2.2-1.2-2.6c-1.2-0.7-2.6-1-4.3-1.7c0.5-0.7,1.2-1.2,1.4-1.9s0.2-1.4,0.5-2.4c0.7,0,1.4,0,2.2,0c4.1,0.2,5.5-0.7,7.2-4.3
		c0.2-0.7,1.2-1,1.7-1.4c0.7-0.5,1.9-1,2.2-1.7c1-2.2,1.2-4.5,0-6.7c0-0.2-0.2-0.2-0.2-0.5C162.4,17.2,125.6,16.2,95,48.5z"/>
	<path class="st0" d="M91.6,45.4c31.8-31.6,76-29.4,79.6-29.2c0.2,0,0.2,0,0.2,0l-0.2-1.9l0,0c-0.7,0-1.7-0.2-2.4-0.2
		c-1.2-0.2-2.4-0.2-3.6-0.2C115.3,9.5,78,25.5,57.2,38.2c2.6,0.2,5.3,0.2,7.9,0.5c0,0.5,0,1,0.2,1.2c0,0.5,0.2,0.7,0.5,1.2
		c3.3-1.2,3.3-1,4.8,5.3c0.2,0,0.5,0,0.7,0c6.2,0.2,12.7,0.2,18.9,0.2C90.7,46.3,91.1,45.9,91.6,45.4z"/>
	<path class="st3" d="M171.5,14.3l0.2,1.9l0,0L171.5,14.3L171.5,14.3L171.5,14.3L171.5,14.3L171.5,14.3z"/>
	<path class="st3" d="M91.6,45.4c-0.5,0.5-1,1-1.4,1.4l0,0C90.7,46.3,91.1,45.9,91.6,45.4z"/>
	<path class="st3" d="M169.1,14.1L169.1,14.1c0.7,0,1.7,0.2,2.4,0.2l0,0C170.5,14.3,169.8,14.3,169.1,14.1L169.1,14.1z"/>
	<g>
		<g>
			<path class="st1" d="M458.5,30.2l-11.7-17.7v17.7H440V0.6h7.1l10.9,16.6V0.6h6.8v29.6H458.5z"/>
			<path class="st1" d="M483.3,30.8c-8.5,0-14.1-6.2-14.1-15.3c0-9.2,5.6-15.4,14.2-15.4c8.6,0,14.1,6.2,14.1,15.3
				C497.6,24.5,492,30.8,483.3,30.8z M483.4,5.8c-4.3,0-6.8,3.7-6.8,9.6s2.5,9.6,6.8,9.6c4.3,0,6.8-3.7,6.8-9.6S487.7,5.8,483.4,5.8
				z"/>
			<path class="st1" d="M517.5,30.5L511.1,20h-1.8v10.2h-7.3V0.6h10.4c7.2,0,11.4,3.3,11.4,9.4c0,4.1-2.1,6.9-5.6,8.4l7.3,10.9
				L517.5,30.5z M511.5,6.1h-2.4v8.6h2.3c3.2,0,5-1.5,5-4.4C516.4,7.6,514.7,6.1,511.5,6.1z"/>
			<path class="st1" d="M541.8,6.8v23.4h-7.4V6.8H526V0.6h23.5l1,6.2H541.8z"/>
			<path class="st1" d="M571.4,30.2v-12h-10.3v12h-7.3V0.6h7.3v11.2h10.3V0.6h7.4v29.6H571.4z"/>
			<path class="st1" d="M606.3,30.7c-8.9,0-14.2-5.9-14.2-15.3c0-9.2,5.6-15.4,14.6-15.4c3.1,0,5.7,0.7,7.8,1.9l-1,6.6
				c-1.8-1.4-3.8-2.4-6.4-2.4c-4.6,0-7.6,3.5-7.6,9.2c0,5.8,3.1,9.2,7.8,9.2c2.4,0,4.6-0.9,6.7-2.3l0.9,6.1
				C612.6,29.8,609.8,30.7,606.3,30.7z"/>
			<path class="st1" d="M627.5,0.4h8.1l10.3,28.9l-7.4,1.2l-2.2-6.4H626l-2,6.1h-7.2L627.5,0.4z M627.8,18.3h6.7L631.1,8L627.8,18.3
				z"/>
			<path class="st1" d="M664.8,30.5L658.3,20h-1.8v10.2h-7.3V0.6h10.4c7.2,0,11.4,3.3,11.4,9.4c0,4.1-2.1,6.9-5.6,8.4l7.3,10.9
				L664.8,30.5z M658.8,6.1h-2.4v8.6h2.3c3.2,0,5-1.5,5-4.4C663.7,7.6,661.9,6.1,658.8,6.1z"/>
			<path class="st1" d="M688.3,30.8c-8.5,0-14.1-6.2-14.1-15.3c0-9.2,5.6-15.4,14.2-15.4c8.6,0,14.1,6.2,14.1,15.3
				C702.5,24.5,696.9,30.8,688.3,30.8z M688.3,5.8c-4.3,0-6.8,3.7-6.8,9.6s2.5,9.6,6.8,9.6c4.3,0,6.8-3.7,6.8-9.6
				S692.6,5.8,688.3,5.8z"/>
			<path class="st1" d="M706.8,30.2V0.6h7.3v23.3h9.1l1,6.4H706.8z"/>
			<path class="st1" d="M728,30.2V0.6h7.3v29.6H728z"/>
			<path class="st1" d="M759.4,30.2l-11.7-17.7v17.7h-6.8V0.6h7.1L759,17.1V0.6h6.8v29.6H759.4z"/>
			<path class="st1" d="M779.7,0.4h8.1l10.3,28.9l-7.4,1.2l-2.2-6.4h-10.2l-2,6.1h-7.2L779.7,0.4z M780,18.3h6.7L783.4,8L780,18.3z"
				/>
		</g>
		<g>
			<path class="st1" d="M446.7,57.1H443v12.5h-3V39.9h7.3c6.1,0,9.8,3,9.8,8.4C457.1,54.1,452.8,57.1,446.7,57.1z M447.2,42.5H443
				v11.9h3.8c4.5,0,7.3-2,7.3-6.1C454.1,44.5,451.7,42.5,447.2,42.5z"/>
			<path class="st1" d="M476.2,70.1c-7,0-11.1-4.7-11.1-11.6V39.9h3v18.2c0,5.5,2.7,9.3,8.2,9.3c5.3,0,8.2-3.5,8.2-9.1V39.9h3v18.4
				C487.4,65.5,483.1,70.1,476.2,70.1z"/>
			<path class="st1" d="M504.3,69.7h-6.9V39.9h6.9c6.1,0,9.2,3,9.2,7.4c0,3.2-1.8,5.4-4.5,6.5c3.5,1,5.9,3.3,5.9,7.2
				C514.9,66.8,510.7,69.7,504.3,69.7z M504.3,42.5h-3.9v10.3h3.8c4.2,0,6.4-2.3,6.4-5.4C510.6,44.4,508.5,42.5,504.3,42.5z
				 M504.4,55.3h-4v11.8h4.2c4.5,0,7.4-2.1,7.4-5.8C512,57.2,509.1,55.3,504.4,55.3z"/>
			<path class="st1" d="M523.7,69.7V39.9h3v27h11.5l0.4,2.8H523.7z"/>
			<path class="st1" d="M546.6,69.7V39.9h3v29.7H546.6z"/>
			<path class="st1" d="M572.6,70.2c-8.1,0-13.5-6.2-13.5-15.4c0-9.1,5.5-15.5,13.7-15.5c3.4,0,6.1,1,8.4,2.5l-0.5,3
				c-2.3-1.7-4.9-2.9-7.9-2.9c-6.6,0-10.6,5.2-10.6,12.7c0,7.6,4.1,12.8,10.6,12.8c3.2,0,6.1-1.2,8.5-3.1l0.4,2.8
				C579.5,68.9,576.2,70.2,572.6,70.2z"/>
			<path class="st1" d="M609.5,70c-3.2,0-5.9-0.8-7.9-1.9l0.4-3c1.8,1.2,4.6,2.2,7.6,2.2c3.5,0,6.1-2,6.1-5.3c0-2.9-1.5-4.4-6-6.4
				c-5.7-2.5-7.8-4.4-7.8-8.6c0-4.5,3.6-7.5,8.5-7.5c2.8,0,5,0.6,6.6,1.6l-0.4,3c-1.7-1.1-3.7-1.9-6.2-1.9c-3.5,0-5.4,2.1-5.4,4.7
				c0,2.7,1.4,4,6,6c5.5,2.4,7.8,4.6,7.8,8.9C618.7,66.9,614.7,70,609.5,70z"/>
			<path class="st1" d="M639.6,70.2c-8.1,0-13.5-6.2-13.5-15.4c0-9.1,5.5-15.5,13.7-15.5c3.4,0,6.1,1,8.4,2.5l-0.5,3
				c-2.3-1.7-4.9-2.9-7.9-2.9c-6.6,0-10.6,5.2-10.6,12.7c0,7.6,4.1,12.8,10.6,12.8c3.2,0,6.1-1.2,8.5-3.1l0.4,2.8
				C646.4,68.9,643.1,70.2,639.6,70.2z"/>
			<path class="st1" d="M677,69.7V55.4h-16.5v14.2h-3V39.9h3v12.8H677V39.9h3v29.7H677z"/>
			<path class="st1" d="M702.6,70.2c-7.9,0-13.4-6.3-13.4-15.4c0-9.1,5.5-15.5,13.5-15.5c8,0,13.4,6.3,13.4,15.4
				C716.1,63.8,710.6,70.2,702.6,70.2z M702.6,42c-6.3,0-10.3,5.2-10.3,12.7c0,7.6,4.1,12.8,10.4,12.8c6.3,0,10.3-5.2,10.3-12.7
				C713,47.2,708.9,42,702.6,42z"/>
			<path class="st1" d="M737.3,70.2c-7.9,0-13.4-6.3-13.4-15.4c0-9.1,5.5-15.5,13.5-15.5c8,0,13.4,6.3,13.4,15.4
				C750.8,63.8,745.3,70.2,737.3,70.2z M737.3,42c-6.3,0-10.3,5.2-10.3,12.7c0,7.6,4.1,12.8,10.4,12.8s10.3-5.2,10.3-12.7
				C747.7,47.2,743.6,42,737.3,42z"/>
			<path class="st1" d="M760,69.7V39.9h3v27h11.5l0.4,2.8H760z"/>
			<path class="st1" d="M789.2,70c-3.2,0-5.9-0.8-7.9-1.9l0.4-3c1.8,1.2,4.6,2.2,7.6,2.2c3.5,0,6.1-2,6.1-5.3c0-2.9-1.5-4.4-6-6.4
				c-5.7-2.5-7.8-4.4-7.8-8.6c0-4.5,3.6-7.5,8.5-7.5c2.8,0,5,0.6,6.6,1.6l-0.4,3c-1.7-1.1-3.7-1.9-6.2-1.9c-3.5,0-5.4,2.1-5.4,4.7
				c0,2.7,1.4,4,6,6c5.5,2.4,7.8,4.6,7.8,8.9C798.5,66.9,794.5,70,789.2,70z"/>
		</g>
	</g>
</g>
</svg>
