<svg width="1006" height="478" viewBox="0 0 1006 478" fill="none" xmlns="http://www.w3.org/2000/svg">
<path d="M5.1379 466.246L0 478H1005.5V210.007L997.779 203.738L990.586 179.446L982.366 155.154L960.787 137.915L953.594 127.728L939.207 123.81V104.22V90.8984L926.876 76.7934H918.656L909.408 64.2557V54.8525L887.828 41.5311L863.167 14.8885L858.029 7.83607L828.229 0H798.429H760.409H731.636L714.168 7.83607L698.754 20.3738V31.3443L689.506 37.6131H665.871H641.209L606.272 41.5311L597.023 50.9344V64.2557L577.5 81.4951L571.334 90.8984L555.92 115.19L546.672 127.728L509.679 137.915L490.155 159.072L439.804 184.931L423.363 210.007L408.977 228.813L401.783 242.134L396.646 253.105L385.342 259.374L368.901 275.046L352.46 289.934L332.936 296.987L310.329 308.741L299.026 321.279L274.364 336.167H258.95L241.481 344.787L220.93 354.19L207.571 365.944L193.185 377.698L181.882 385.534L163.385 401.99V409.826H133.585L112.006 415.311V429.416L104.813 433.334L84.2615 429.416L76.0409 433.334H53.4341H43.1583L27.7446 439.603L16.4413 449.79V466.246H5.1379Z" fill="white"/>
</svg>
