<svg width="1006" height="478" viewBox="0 0 1006 478" fill="none" xmlns="http://www.w3.org/2000/svg">
<path d="M5.14 466.25L4.02 467.83L2.89 469.12L1.73 470.58L0.82 472.34L0.41 474.92L0.18 476.45L0 478H1006V210.01L1004.12 208.45L1002.34 206.23L1000.52 204.87L998.73 202.54L997.78 203.74L995.92 201.38L994.21 198.95L992.48 196.72L991.24 193.45L990.59 179.45L989.34 177.23L988.12 175.08L986.45 172.34L985.23 169.87L983.78 166.54L982.37 155.15L980.45 152.34L978.67 149.87L976.89 147.23L975.12 144.56L973.34 141.89L971.23 139.45L968.78 138.23L965.67 137.89L962.34 137.78L960.79 137.92L958.23 136.45L956.12 134.23L954.45 131.67L953.59 127.73L951.78 125.89L949.56 124.12L947.34 122.78L944.89 121.89L942.23 121.23L939.21 123.81L940.12 120.45L939.89 116.78L939.67 112.34L939.21 104.22L938.12 100.89L936.78 97.56L935.23 94.23L932.89 91.67L929.78 91.12L926.88 90.9L924.34 89.23L921.89 87.12L919.56 84.45L918.66 76.79L916.23 74.67L913.78 72.12L911.34 69.45L909.41 64.26L907.67 61.89L905.89 59.12L903.78 56.45L901.5 54.85L899.12 52.78L896.67 50.34L894.23 47.89L891.56 45.23L888.89 42.78L887.83 41.53L885.12 39.45L882.45 37.23L879.67 34.89L876.89 32.34L874.12 29.67L871.23 26.78L868.12 23.56L865.23 20.12L863.17 14.89L861.12 12.45L859.23 9.89L858.03 7.84L856.12 5.89L853.45 4.56L850.67 3.45L847.56 2.67L844.34 2.12L840.89 1.56L836.78 1.12L832.34 0.67L828.23 0L823.12 0.34L817.89 0.56L812.45 0.45L807.23 0.34L801.78 0.23L798.43 0L791.23 0.34L784.12 0.56L776.78 0.45L769.34 0.34L760.41 0L753.23 0.78L746.12 1.56L739.45 2.34L733.12 1.12L731.64 0L726.78 1.89L722.34 3.45L718.12 5.67L714.17 7.84L711.23 9.89L708.12 12.34L705.23 15.12L702.12 17.67L699.34 19.89L698.75 20.37L696.78 22.56L694.45 25.12L692.34 27.89L690.45 30.45L689.51 37.61L686.12 37.45L682.45 37.34L678.67 37.56L674.89 37.67L671.12 37.56L667.45 37.67L665.87 37.61L661.23 38.12L656.78 38.89L652.12 39.67L647.67 40.23L643.12 40.89L641.21 41.53L635.78 41.23L630.12 41.45L624.67 41.34L619.23 41.56L613.67 41.45L608.12 41.34L606.27 41.53L603.12 43.67L600.23 46.12L597.78 48.78L597.02 50.93L595.12 53.45L592.89 56.23L590.56 59.12L588.23 61.89L585.89 64.45L583.45 66.89L580.89 69.78L578.23 73.12L577.5 81.5L575.67 83.89L573.78 86.45L571.89 88.89L571.33 90.9L569.12 93.67L566.78 96.78L564.34 99.89L561.89 103.12L559.34 106.45L556.89 109.89L555.92 115.19L553.78 117.56L551.56 120.12L549.23 122.78L546.67 127.73L541.23 129.45L535.67 131.34L530.12 133.23L524.67 135.12L519.12 136.56L513.78 137.34L509.68 137.92L504.56 141.23L499.23 145.12L494.12 149.34L490.16 159.07L482.34 163.56L474.12 168.34L465.89 173.23L457.78 178.12L449.45 182.89L439.8 184.93L434.12 190.45L428.23 196.23L423.36 210.01L419.12 214.89L414.89 219.78L410.67 224.56L408.98 228.81L406.12 232.45L403.23 236.23L401.78 242.13L400.12 245.67L398.34 249.34L396.65 253.11L393.78 255.89L390.67 258.12L387.56 260.45L385.34 259.37L381.23 263.12L377.12 266.89L373.12 270.78L368.9 275.05L364.78 278.89L360.56 282.78L356.34 286.67L352.46 289.93L348.12 292.78L343.67 295.45L339.23 298.12L334.78 300.67L332.94 296.99L327.56 300.23L322.12 303.56L316.67 306.89L310.33 308.74L306.78 311.89L303.12 315.12L299.03 321.28L293.78 324.89L288.23 328.67L282.67 332.34L277.12 336.12L274.36 336.17L268.45 336.45L262.67 336.78L258.95 336.17L253.89 338.45L248.67 341.12L243.45 343.78L241.48 344.79L236.12 347.67L230.67 350.56L225.12 353.45L220.93 354.19L216.78 357.23L212.45 360.45L208.12 363.67L207.57 365.94L202.89 369.12L198.45 372.45L194.12 375.78L193.19 377.7L188.89 380.34L184.56 383.12L181.88 385.53L177.12 388.89L172.23 392.45L167.34 396.12L163.39 401.99L163.56 404.67L163.34 407.45L163.39 409.83L157.67 410.12L151.78 410.34L145.89 410.23L139.89 410.12L133.59 409.83L128.12 411.23L122.45 413.12L116.78 414.89L112.01 415.31L109.23 417.45L106.34 420.12L104.81 429.42L103.45 430.89L101.89 432.23L99.78 433.34L97.45 434.23L95.12 434.89L92.67 434.45L104.81 433.33L96.23 433.89L91.12 432.67L86.78 431.12L84.26 429.42L81.67 430.89L78.89 432.34L76.04 433.33L71.67 433.56L67.12 433.78L62.56 433.89L57.89 434.12L53.43 433.33L50.12 434.89L46.67 436.56L43.16 439.6L40.12 441.78L36.89 444.12L33.56 446.34L30.12 448.23L27.74 439.6L25.12 442.45L22.45 445.34L19.67 448.12L16.44 449.79L14.12 452.89L11.67 456.12L9.12 459.45L6.56 462.78L5.14 466.25Z" fill="white"/>
</svg>
