<svg width="846" height="374" viewBox="0 0 846 374" fill="none" xmlns="http://www.w3.org/2000/svg">
<path d="M496.39 98.5335L556.265 109.075L576.818 130.432L649.149 212.582L690.351 234.2L718.734 271.672L769.091 296.894L805.714 322.116L846 374H0V0L23.1777 3.65198V7.86892L38.6295 15.7757L59.8758 24.2096L77.2591 26.3181L102.369 24.2096L115.888 21.0469L129.409 17.3571L131.341 15.7757L169.97 21.0469L181.559 24.2096L210.531 26.3181L225.983 24.2096L247.229 21.0469L270.407 34.752L280.064 45.8215L305.173 59.5265L336.077 72.7044L374.707 85.3556L380.501 90.0994L390.158 95.3707L401.747 93.2622L496.39 98.5335Z" fill="white"/>
</svg>
