<svg width="1373" height="570" viewBox="0 0 1373 570" fill="none" xmlns="http://www.w3.org/2000/svg">
<path d="M1348.91 555.694L1373 570L395.189 569.247L389.92 565.482L371.101 560.964L364.327 551.929L344.003 543.646L313.893 529.339L305.613 512.774L296.58 486.42L290.558 479.643L283.031 472.866L255.932 472.866L230.339 461.572L192.702 443.501L176.141 443.501L146.785 431.453L127.966 412.629L106.889 398.322L97.1037 386.275L73.0159 371.968L58.7139 356.909L21.0768 328.296L2.28419e-05 308.719L4.9831e-05 2.03884e-06L24.8405 28.6129L36.8844 45.9313L62.4776 74.5442L84.307 92.6155L109.9 105.416L121.944 124.24L131.73 146.077L136.999 169.419L149.043 178.454L173.131 185.984L182.916 194.267L213.779 202.549L245.394 211.585L278.514 216.856L305.613 222.127L329.701 240.951L351.53 240.951L363.574 240.951L371.101 248.481L382.393 245.469L401.964 243.21L429.815 248.481L454.656 254.505L473.474 256.764L494.551 259.775L511.864 265.046L541.221 265.046L566.814 267.305L609.72 274.835L645.852 278.6L658.649 274.835L669.187 267.305L664.671 256.764L664.671 222.127L669.187 222.127L672.198 211.585L678.973 201.797L689.511 211.585L703.06 243.21L712.093 256.764L712.093 245.469L721.126 243.21L736.181 245.469L743.708 256.764L760.269 271.07L765.538 288.388L782.098 303.448L795.647 303.448L807.691 308.719L833.285 308.719L846.834 311.731L858.878 318.507L882.965 318.507L907.053 323.025L941.679 323.025L955.981 327.543L983.08 338.838L990.607 349.379L1003.4 349.379L1019.21 361.427L1026.74 381.757L1039.54 389.287L1053.84 403.593L1096.74 415.641L1104.27 423.17L1124.6 438.23L1135.89 445.76L1152.45 458.56L1172.02 458.56L1199.87 462.325L1224.71 466.843L1259.34 487.173L1261.59 493.95L1270.63 504.491L1293.21 524.069L1315.79 532.351L1327.84 538.375L1340.63 549.67L1348.91 555.694Z" fill="#FFFFFF"/>
</svg>
