<svg width="924" height="519" viewBox="0 0 924 519" fill="none" xmlns="http://www.w3.org/2000/svg">
<path d="M542.156 136.735L607.552 151.364L630 181L709 295L754 325L785 377L840 412L880 447L924 519H0V0L25.3147 5.06786V10.9197L42.1911 21.892L65.3963 33.5957L84.3823 36.5216L111.807 33.5957L126.573 29.2068L141.34 24.0864L143.45 21.892L185.641 29.2068L198.298 33.5957L229.942 36.5216L246.818 33.5957L270.023 29.2068L295.338 48.2253L305.886 63.5865L333.31 82.605L367.063 100.892L409.254 118.448L415.583 125.031L426.13 132.346L438.788 129.42L542.156 136.735Z" fill="white"/>
</svg>
