<svg width="930" height="458" viewBox="0 0 930 458" fill="none" xmlns="http://www.w3.org/2000/svg">
<path d="M54.8668 13.1102L42.2053 0.669909L0 0V457.301H647.848L929.5 457.302L886.848 415.67L821.848 394.67L765.848 353.67L738.848 315.67L694.848 283.67L635.186 258.257L624.635 249.476V232.645L605.643 218.009L592.981 197.519L546.556 174.834L489.579 145.563L443.153 133.122L407.279 119.95L348.192 105.315H331.31L308.097 100.192L301.766 92.8744L289.105 84.8248L274.333 81.8977L259.561 73.1163V65.7985L204.695 57.0171L139.277 48.2357L99.1821 36.5272L71.7488 20.428L54.8668 13.1102Z" fill="#A7C892"/>
</svg>
