<svg width="893" height="445" viewBox="0 0 893 445" fill="none" xmlns="http://www.w3.org/2000/svg">
<path d="M335 235.82L332.67 237.45L330.23 239.12L328.84 241.3L327.45 243.56L326.12 245.89L325.76 246.79L324.34 249.23L323.12 251.67L322.67 252.27L320.45 255.78L318.34 259.34L316.51 263.24L316.67 265.56L316.45 267.89L316.51 269.12L316.67 271.34L316.45 273.56L316.51 274.99L313.78 275.12L310.89 275.23L307.89 275.12L306.74 274.99L303.45 275.34L300.12 276.78L296.98 274.99L292.67 276.56L289.34 278.23L285.68 280.08L282.45 281.67L279.12 283.34L275.78 284.89L274.37 285.18L272.56 286.89L270.78 288.67L270.26 290.07L268.89 291.78L267.45 293.56L266.15 294.97L264.12 297.34L261.89 299.89L259.67 302.45L257.93 304.76L256.23 305.89L254.45 306.34L252.67 306.62L251.12 307.23L249.45 307.78L247.4 308.48L245.67 309.12L243.89 309.67L242.13 310.34L240.34 310.89L238.56 311.45L236.87 312.21L234.12 313.12L231.23 314.23L228.34 315.34L226.33 315.93L224.56 316.67L222.78 317.34L221.07 317.79L219.23 318.45L217.45 319.12L215.8 319.65L213.34 321.12L210.78 322.78L208.23 324.45L207.58 326.7L205.12 328.89L202.56 331.12L199.89 333.45L199.36 333.75L197.45 335.67L195.56 337.89L193.96 340.02L191.89 342.12L189.78 344.34L188.57 346.29L185.67 349.56L182.56 352.89L179.45 356.23L177.78 358.82L176.34 360.67L174.89 362.45L173.54 363.03L172.23 364.56L170.89 366.12L169.3 367.24L168.12 368.67L166.89 370.23L165.06 371.45L164.12 372.89L163.12 374.34L160.82 375.67L159.67 377.12L158.45 378.67L156.58 379.88L155.56 381.23L154.45 382.67L152.34 384.09L151.34 385.56L150.23 387.12L148.11 388.3L147.12 389.78L146.01 391.34L143.87 392.51L142.23 393.89L140.45 395.23L138.22 395.84L136.45 396.89L134.56 397.89L132.56 399.17L130.12 400.89L127.56 402.67L124.89 404.45L121.26 405.83L119.34 407.12L117.34 408.34L115.61 409.35L113.56 410.56L111.45 411.78L109.96 412.88L108.12 413.89L106.23 415.12L104.3 416.4L103.12 417.34L101.89 418.23L100.15 418.7L99.12 419.45L98.01 420.23L96 421L94.56 421.34L93.01 421.56L90.5 422L89.34 421.89L88.12 421.67L86.5 421.5L85.12 422.23L83.67 422.89L80.5 424.22L79.34 424.12L78.12 423.89L76.69 424.22L76.01 424.01L75.34 423.67L74.5 423.5L74.12 424.12L73.67 424.56L73 425L71.78 424.78L70.45 424.45L68.5 424.22L67.89 424.56L67.23 424.89L66.5 424.22L65.23 425.12L63.89 425.67L61.5 426L61.12 426.34L60.67 426.67L60.5 427L59.34 427.23L58.01 427.56L55.5 428L54.45 427.89L53.23 427.78L51 427.81L49.78 428.34L48.45 428.89L46.67 429.6L45.89 429.23L45.12 428.67L44 428.5L43.23 429.34L42.45 430.12L41 431.5L40.56 431.01L40.01 430.56L39.5 430.5L38.34 430.89L37.01 431.23L34.5 431.5L33.23 432.12L31.89 432.78L29.5 433.5L28.67 434.23L27.78 434.89L27 435.5L25.78 435.67L24.45 435.89L23 435.5L21.67 435.78L20.23 435.89L18 436L15.67 437.12L13.12 438.45L10.45 439.67L8.22 440.3L7.12 441.12L5.89 441.89L4.11 442.65L3.23 443.34L2.23 444.12L0.78 444.56L0 445H893V213.1L891.78 210.45L890.45 207.67L890.17 203.31L889.34 200.56L888.45 197.67L887.35 193.51L886.56 190.78L885.67 187.89L884.52 183.72L883.78 180.89L882.89 177.89L881.7 173.93L880.34 172.12L878.89 170.23L876.56 168.74L875.12 167.12L873.56 165.34L871.42 163.55L868.67 160.89L865.78 158.12L862.89 155.23L861.14 153.17L858.45 150.56L855.67 147.78L852.78 144.89L850.87 142.78L848.12 140.23L845.23 137.56L842.23 134.78L840.59 132.4L838.12 130.12L835.56 127.78L833.14 126.53L830.78 124.56L828.34 122.45L825.69 120.65L823.56 118.89L821.34 117.12L818.24 114.78L816.23 112.89L814.12 110.89L810.79 108.9L809.45 105.23L808.01 101.45L807.19 93.23L806.34 89.12L805.45 84.89L803.6 77.56L802.67 75.67L801.78 73.67L801.03 72.86L800.34 71.89L799.56 70.78L798.46 68.16L798.67 66.78L798.45 65.23L798.46 63.07L798.67 61.56L798.45 59.89L798.46 57.98L798.67 55.89L798.45 53.56L798.46 51.32L798.56 49.12L798.45 46.78L798.46 44.66L795.67 43.56L792.67 42.12L789.56 40.56L788.18 39.37L785.34 38.34L782.34 36.89L779.23 35.34L777.91 34.08L772.78 31.56L767.45 28.89L762.12 26.12L757.35 23.5L757.67 22.12L757.45 20.56L757.35 18.41L757.56 17.12L757.34 15.67L757.35 13.32L754.89 13.01L752.34 12.45L749.65 11.56L747.23 11.34L744.67 10.89L741.94 9.79L737.56 9.12L733.01 8.23L728.34 7.23L726.53 6.27L723.78 5.67L720.89 4.89L717.89 4.01L716.25 3.13L713.67 2.67L710.89 2.01L708.01 1.23L705.97 0L704.12 1.01L702.23 2.12L699.81 3.13L697.89 4.12L695.89 5.23L693.64 6.27L690.23 6.89L686.56 7.67L682.78 8.34L682.34 8.03L678.89 8.89L675.23 9.56L671.45 10.12L671.04 9.79L667.56 10.56L663.89 11.23L660.12 11.78L659.73 11.56L656.23 12.34L652.56 13.01L648.78 13.56L648.43 13.32L646.56 14.23L644.67 15.12L643.03 15.86L641.23 16.78L639.34 17.67L637.64 18.41L635.78 19.34L633.89 20.23L632.24 20.96L630.34 21.89L628.45 22.78L626.85 23.5L624.56 23.78L622.23 23.89L619.65 23.5L617.34 23.78L614.89 23.89L612.46 23.5L610.23 23.78L607.78 23.89L605.27 23.5L603.01 23.78L600.56 23.89L598.07 23.5L596.23 23.78L594.34 23.89L592.94 23.5L591.12 23.78L589.23 23.89L587.8 23.5L586.01 23.78L584.12 23.89L582.66 23.5L580.89 23.78L578.89 23.89L577.52 23.5L575.34 24.12L573.01 24.23L570.33 23.5L568.12 24.23L565.67 24.12L563.14 23.5L560.89 24.89L558.45 26.12L556.46 27.81L554.12 29.23L551.67 30.67L549.78 32.12L547.34 33.56L544.89 35.01L543.1 36.43L541.01 38.12L538.78 39.67L536.42 40.74L535.12 40.89L533.78 41.12L532.31 40.74L531.12 41.23L529.78 41.12L528.2 40.74L526.78 41.34L525.23 41.12L523.31 40.74L521.67 41.23L520.01 41.12L518.43 40.74L516.78 41.34L515.12 41.23L513.55 40.74L512.01 41.34L510.23 41.12L508.67 40.74L507.34 41.56L506.01 42.34L504.95 42.89L503.67 43.67L502.34 44.45L501.22 45.05L500.12 45.89L498.89 46.67L497.5 47.2L496.45 48.12L495.23 48.89L493.77 49.36L492.67 50.34L491.45 51.12L490.05 51.51L489.01 52.45L487.67 53.23L486.32 53.67L484.12 55.12L481.67 56.67L478.87 57.98L477.34 59.56L475.67 61.23L474.25 62.87L472.89 64.56L471.34 66.23L469.62 67.77L468.23 69.56L466.56 71.34L464.99 72.67L463.56 74.45L461.89 76.23L460.37 77.56L459.34 79.45L458.23 81.56L457.29 84.22L456.34 86.34L455.34 88.56L454.21 90.88L452.23 92.67L450.12 94.56L448.04 95.39L446.12 97.23L443.89 99.01L441.88 99.89L439.89 101.67L437.67 103.45L435.71 104.4L433.78 106.12L431.56 107.89L429.54 108.9L428.56 109.89L427.45 110.78L426.21 111.25L425.23 112.23L424.12 113.12L422.87 113.6L421.89 114.56L420.67 115.45L419.53 115.95L418.56 116.89L417.34 117.78L416.19 118.3L415.23 119.56L414.01 120.89L412.59 122.51L411.56 123.89L410.34 125.34L408.99 126.72L408.01 128.23L406.78 129.67L405.4 130.93L404.45 132.34L403.12 133.78L401.8 135.15L400.89 136.67L399.56 138.12L398.2 139.36L397.23 140.89L395.89 142.34L394.61 143.57L392.34 146.56L389.89 149.67L387.41 151.99L385.67 154.23L383.78 156.56L382.27 159.04L380.56 161.45L378.67 163.89L377.14 166.09L375.34 168.89L373.34 171.78L371.48 174.32L369.78 176.89L367.89 179.56L365.83 182.54L366.01 186.34L365.89 190.23L365.83 194.69L366.01 198.56L365.89 202.45L365.83 206.83L363.78 209.12L361.56 211.56L359.15 213.1L357.12 215.34L354.89 217.67L352.47 219.37L350.89 221.23L349.12 223.23L347.85 224.85L346.34 226.67L344.67 228.56L343.22 230.34L341.89 231.89L340.45 233.34L339.11 233.08L337.89 234.23L336.56 235.12L335 235.82Z" fill="#062F29"/>
</svg>
