<svg width="1370" height="564" viewBox="0 0 1370 564" fill="none" xmlns="http://www.w3.org/2000/svg">
<path d="M1345.91 550.464L1370 560.992L318.412 564L300.346 553.472L290.56 536.928L290.56 524.896L290.56 507.6L267.225 491.808L243.137 498.576L226.577 498.576L208.511 465.488L187.434 442.928L166.357 425.632L146.033 448L126.462 448L109.148 431.456L90.3297 419.424L68.5 435.408L50.4341 414.352L30.8627 393.296L12.7968 374.496L1.79475e-05 358.704L4.51653 2.69595e-06L21.077 26.32L21.0769 45.12L21.0769 54.896L27.8517 69.936L27.8517 84.976L38.3902 98.512L43.6595 106.032L63.2309 126.336L82.0495 139.12L100.115 153.408L109.148 168.448L116.676 185.744L137 196.272L146.033 196.272L166.357 203.04L187.434 209.808L221.308 219.584L243.137 229.36L254.429 237.632L277.011 242.896L318.412 237.632L355.297 237.632L372.61 251.168L405.731 242.896L463.692 251.168L495.308 263.952L529.934 263.952L566.819 263.952L608.973 272.976L648.115 272.976L662.418 287.264L685 295.536L708.335 295.536L720.379 295.536L751.995 300.8L761.78 309.824L789.632 309.824L807.698 315.088L838.56 321.104L889.747 321.104L897.275 327.12L928.137 327.12L968.033 342.16L992.874 356.448L1013.2 374.496L1019.97 396.304L1038.04 417.36L1051.59 425.632L1064.38 433.152L1085.46 442.928L1097.51 442.928L1109.55 460.224L1121.59 465.488L1147.19 460.224L1164.5 465.488L1204.4 472.256L1244.29 484.288L1255.21 494.064L1244.29 491.808L1282.68 519.632L1302.25 534.672L1322.58 534.672L1333.12 550.464L1345.91 550.464Z" fill="#062F29"/>
</svg>
