<svg width="1910" height="1021" viewBox="0 0 1910 1021" fill="none" xmlns="http://www.w3.org/2000/svg">
<path d="M1876.41 1000.83L1910 1021H442.794L418.731 1006.59L405.087 974.901V951.852V918.718L372.555 888.466L338.972 901.431H315.885L290.698 838.046L261.313 794.828L231.928 761.695L203.593 804.544H176.308L152.17 772.852L125.934 749.802L95.5 780.422L70.3132 838.086L43.0275 797.75L17.8408 761.735L0 731.483V0L29.3847 52.7453L29.3846 88.76V107.488L38.8297 136.299V165.111L53.5221 191.041L60.8683 205.447L88.154 244.343L114.39 268.833L139.576 296.204L152.17 325.015H171.543L191 322.317H203.593L231.928 335.282L261.313 348.247L308.539 366.975L338.972 385.702L354.715 401.549L386.198 411.633L443.917 401.549H495.341L519.478 427.479L565.654 411.633L646.461 427.479L690.539 451.97H738.813H790.237L849.006 469.257H903.576L923.517 496.628L955 512.474H987.533H1004.32L1048.4 522.558L1062.04 539.845H1100.87L1126.06 549.929L1169.09 561.454H1240.45L1250.95 572.978H1293.97L1349.59 601.79L1384.23 629.161L1412.56 663.735L1422 705.512L1447.19 745.848L1466.09 761.695L1483.92 776.101L1513.31 794.828H1530.11L1546.89 827.962L1563.68 838.046L1599.37 827.962L1623.5 838.046L1679.13 851.011L1734.74 874.06L1737.12 875.417L1739.91 877.333L1741.31 881.164L1742 885.953L1741.31 888.466L1738.52 889.784L1737.12 890.742L1788.26 941.768L1815.55 970.58H1843.89L1858.58 1000.83H1876.41Z" fill="#D5D7DA"/>
</svg>
