<svg width="846" height="329" viewBox="0 0 846 329" fill="none" xmlns="http://www.w3.org/2000/svg">
<path d="M49.9379 9.43196L38.4139 0.481957L0 0V328.999H589.65L846 329L807.18 299.048L748.019 283.94L697.049 254.443L672.475 227.105L632.428 204.083L578.125 185.8L568.522 179.482V167.373L551.236 156.844L539.712 142.102L497.457 125.782L445.599 104.723L403.343 95.7729L370.692 86.2965L316.913 75.7675H301.547L280.42 72.0818L274.657 66.8173L263.134 61.0261L249.689 58.9202L236.244 52.6026V47.3379L186.307 41.0202L126.765 34.7025L90.2722 26.279L65.3034 14.6967L49.9379 9.43196Z" fill="#ACF7B2"/>
</svg>
