<svg width="1918" height="1033" viewBox="0 0 1918 1033" fill="none" xmlns="http://www.w3.org/2000/svg">
<path d="M1880.5 1007.07L1918 1033H550.928L543.583 1025.8L517.347 1017.15L507.904 999.87L479.57 984.024L437.594 956.654L426.051 924.964L413.458 874.548L405.063 861.583L394.57 848.618H356.792L321.113 827.012L268.643 792.441H245.556L204.631 769.393L178.396 733.381L149.013 706.011L135.371 682.965L101.791 655.595L81.8523 626.786L29.3829 572.048L0 534.596L3.76252e-05 0L34.6298 54.738L51.4201 87.869L87.0992 142.607L117.531 177.178L153.21 201.666L170.001 237.678L183.643 279.453L190.989 290.108L207.779 307.392L241.36 299.797L255.001 315.643L298.027 331.487L342.101 348.773L388.273 358.857L426.051 368.941L459.632 404.952H490.064H506.854L517.347 419.357L533.089 413.595L560.373 409.274L599.2 409.745L633.83 421.269L660.064 420.097L689.447 425.858L713.583 435.941H754.51L790.188 440.263L850.003 454.668L886 455.369L915 462.571L932.905 451.5L926.61 435.203L932.905 413.595H939.201L943.399 393.428L952.844 374.703L966 378L980.127 409.274L992.72 435.203V413.595L1005.31 409.274L1026.3 413.595L1036.79 435.203L1059.88 462.571L1067.23 495.702L1090.31 524.512H1109.2L1125.99 534.596H1161.67L1180.56 540.358L1197.35 553.321H1230.93L1264.51 561.964H1312.78L1332.72 570.607L1370.5 592.215L1380.99 612.381H1398.83L1420.87 635.429L1431.37 674.322L1449.21 688.727L1469.15 716.095L1528.95 739.143L1539.45 753.547L1567.79 782.357L1583.53 796.763L1606.62 821.25H1633.9L1672.72 828.453L1707.35 837.096L1755.63 875.988L1758.77 888.953L1771.37 909.118L1802.85 946.572L1834.33 962.416L1851.13 973.94L1868.96 995.548L1880.5 1007.07Z" fill="white"/>
</svg>
