<svg width="917" height="420" viewBox="0 0 917 420" fill="none" xmlns="http://www.w3.org/2000/svg">
<path d="M344.006 222.571L337.676 227.747L334.51 232.923L331.344 238.098L325.012 248.45V253.996V259.542H314.988H304.964L293.356 264.349L281.748 269.155L277.528 273.777L273.306 278.398L264.864 287.641L259.457 289.397L254.048 291.153L248.639 292.909L243.232 294.665L232.416 298.178L227.007 299.934L221.6 301.69L213.158 308.345L204.716 315L199.176 320.916L193.636 326.831L182.556 338.662L178.203 342.636L173.85 346.611L169.497 350.586L165.144 354.56L160.791 358.535L156.438 362.509L152.085 366.484L147.734 370.458L141.93 373.601L136.126 376.743L124.518 383.028L118.714 386.356L112.91 389.684L107.106 393.011L102.844 395.179L98.5801 397.348L92.9323 398.292L88.8248 397.82L82.6635 400.386H78.7543L76.5022 399.708L74.9619 401.124L70.341 400.386H68.2872L63.1529 402.067L62.126 403.011L56.9916 403.955L52.3707 403.774L47.9247 405.468L45.1825 404.427L42.1019 407.258L40.5616 406.315L35.4272 407.258L30.2928 409.146L27.7256 411.034H23.6181L18.4838 411.506L8.44188 415.563L4.22094 417.782L0 420H917V201.127L914.098 191.883L911.196 182.641L908.294 173.398L905.392 164.155L900.116 159.256L894.84 154.357L884.288 144.56L873.736 134.762L863.183 124.965L855.532 119.419L847.882 113.873L840.232 108.328L832.582 102.782L828.888 87.9929L825.194 73.2042L822.556 68.7676L819.918 64.331V59.5247V54.7184V48.4331V42.1479L809.366 37.1567L798.814 32.1655L777.708 22.1831V17.3768V12.5705L769.794 10.9067L761.88 9.24295L746.052 5.9155L735.5 2.95774L724.948 0L718.616 2.95774L712.284 5.9155L700.676 7.57923L689.07 9.24295L677.462 10.9067L665.854 12.5705L660.314 14.9736L654.774 17.3768L649.234 19.7799L643.694 22.1831H636.308H628.92H621.534H614.148H608.872H603.594H598.318H593.042H585.656H578.27L571.41 26.25L564.552 30.3169L557.692 34.3838L550.834 38.4507H546.612H542.392H537.378H532.366H527.354H522.342L518.517 40.4841L514.692 42.5176L510.867 44.5511L507.04 46.5845L503.215 48.618L499.39 50.6514L491.74 54.7184L486.992 59.3398L482.242 63.9613L477.494 68.5828L472.746 73.2042L469.58 79.4895L466.414 85.7747L460.082 90.0264L453.752 94.2782L447.42 98.5301L441.088 102.782L437.66 105L434.23 107.218L430.8 109.437L427.37 111.655L423.678 115.629L419.984 119.604L416.29 123.578L412.598 127.553L408.904 131.527L405.21 135.501L397.824 143.45L392.548 150.105L387.272 156.761L381.468 164.525L375.664 172.289V183.75V195.211L368.804 201.127L361.946 207.042L357.198 212.218L352.448 217.395L348.228 219.983L344.006 222.571Z" fill="#062F29"/>
</svg>
